<?xml version="1.0" standalone="no"?>
<!DOCTYPE svg PUBLIC "-//W3C//DTD SVG 20010904//EN"
 "http://www.w3.org/TR/2001/REC-SVG-20010904/DTD/svg10.dtd">
<svg version="1.0" xmlns="http://www.w3.org/2000/svg"
 width="512.000000pt" height="512.000000pt" viewBox="0 0 512.000000 512.000000"
 preserveAspectRatio="xMidYMid meet">

<g transform="translate(0.000000,512.000000) scale(0.100000,-0.100000)"
 fill="#292C6D" stroke="none">
<path d="M1205 4986 c-43 -14 -590 -318 -614 -341 -24 -24 -18 -75 13 -102 15
-12 35 -23 44 -23 9 0 141 70 293 155 152 85 291 160 308 166 87 31 181 -41
181 -138 0 -94 -135 -550 -247 -833 -176 -445 -358 -710 -490 -710 -186 0
-443 362 -528 744 -43 191 25 347 191 441 95 55 114 73 114 111 0 41 -29 74
-66 74 -39 0 -171 -76 -233 -134 -141 -133 -196 -310 -156 -506 91 -447 391
-857 642 -878 l56 -5 -7 -61 c-14 -140 -18 -363 -7 -436 9 -59 17 -80 37 -97
28 -26 42 -28 77 -12 40 18 49 51 36 127 -14 79 -6 322 15 455 l14 87 67 72
c188 199 381 606 534 1128 l57 195 54 32 c236 143 572 186 898 118 65 -14 79
-14 145 0 325 68 661 25 897 -118 l54 -32 38 -135 c157 -546 360 -984 553
-1188 l67 -72 14 -87 c8 -49 17 -158 20 -243 6 -125 4 -171 -10 -238 -33 -164
-140 -358 -320 -582 -95 -119 -350 -368 -486 -476 -99 -79 -126 -105 -128
-127 -7 -61 52 -101 108 -72 48 25 228 172 330 269 265 255 450 493 560 721
78 161 94 231 95 420 0 88 -4 203 -8 256 l-9 96 55 5 c252 21 560 445 643 885
38 201 -17 370 -163 503 -74 67 -379 240 -424 240 -16 0 -38 -9 -49 -20 -25
-25 -27 -81 -3 -102 10 -8 95 -58 189 -111 121 -68 183 -110 213 -142 89 -97
118 -218 86 -361 -52 -234 -181 -489 -320 -630 -110 -112 -213 -142 -291 -86
-150 110 -332 446 -489 902 -84 246 -165 549 -165 618 0 78 76 148 153 138 23
-2 101 -39 195 -92 217 -121 205 -116 238 -104 56 22 70 72 31 114 -28 31
-337 205 -396 223 -96 29 -194 5 -272 -65 -63 -57 -90 -110 -97 -189 -2 -35
-6 -63 -7 -63 -1 0 -35 14 -76 31 -233 96 -569 122 -837 65 -52 -11 -73 -11
-127 0 -278 58 -595 33 -838 -67 -38 -16 -71 -29 -72 -29 -1 0 -5 29 -7 65
-15 179 -202 305 -373 251z"/>
<path d="M1795 4080 c-115 -16 -243 -77 -280 -134 -18 -27 -14 -76 8 -95 34
-28 66 -23 126 17 134 89 328 89 462 0 48 -32 65 -38 88 -33 36 8 49 22 57 64
6 28 2 36 -34 70 -91 87 -268 133 -427 111z"/>
<path d="M3155 4080 c-115 -16 -243 -77 -280 -134 -18 -27 -14 -76 8 -95 34
-28 66 -23 126 17 134 89 328 89 462 0 48 -32 65 -38 88 -33 36 8 49 22 57 64
6 28 2 36 -34 70 -91 87 -268 133 -427 111z"/>
<path d="M1712 3455 c-67 -19 -101 -36 -140 -73 -37 -35 -41 -68 -11 -106 28
-35 65 -34 127 5 86 53 203 51 286 -6 49 -33 89 -33 115 1 31 39 27 71 -14
110 -73 69 -246 102 -363 69z"/>
<path d="M3180 3455 c-30 -9 -74 -27 -97 -41 -74 -43 -91 -89 -52 -138 28 -35
65 -34 130 7 48 29 59 32 134 32 75 0 86 -3 134 -32 65 -41 102 -42 131 -6 86
110 -180 234 -380 178z"/>
<path d="M2440 3158 c-130 -7 -232 -34 -279 -74 -75 -63 -111 -220 -77 -335
35 -121 99 -170 299 -226 l97 -27 0 -183 0 -182 -37 -10 c-69 -18 -207 -39
-303 -46 -125 -9 -247 8 -327 45 -151 70 -279 253 -364 520 -43 134 -82 167
-143 119 -35 -28 -34 -67 5 -182 82 -245 207 -439 354 -545 65 -48 67 -50 125
-167 71 -142 100 -264 107 -444 l6 -145 -39 24 c-146 89 -356 264 -519 431
-144 148 -224 246 -321 395 -80 122 -101 137 -154 109 -32 -16 -46 -50 -35
-84 3 -12 37 -67 74 -124 228 -346 555 -655 963 -910 l27 -17 3 -293 3 -293
38 -76 c65 -132 213 -241 394 -290 111 -30 335 -30 446 0 181 49 329 158 394
290 l38 76 6 525 5 526 27 100 c24 89 106 275 139 316 7 8 33 29 58 46 104 71
215 215 291 378 53 112 101 262 97 304 -5 63 -77 90 -121 47 -7 -8 -28 -59
-46 -115 -42 -135 -82 -220 -146 -316 -102 -154 -204 -223 -362 -245 -120 -17
-337 1 -485 41 l-38 10 0 182 0 183 98 27 c142 40 215 77 251 128 107 147 66
398 -75 460 -99 44 -257 60 -474 47z m275 -153 c114 -9 145 -22 166 -69 35
-78 14 -192 -41 -221 -49 -25 -232 -75 -277 -75 -47 0 -192 38 -265 69 -36 15
-48 27 -62 60 -21 54 -20 116 3 167 16 35 25 43 64 53 53 15 220 29 292 25 28
-2 82 -6 120 -9z m-50 -1035 c143 -33 238 -44 382 -44 l141 -1 -15 -35 c-9
-19 -30 -78 -47 -131 l-31 -95 -45 28 c-107 68 -265 99 -396 78 -44 -7 -86
-12 -94 -12 -8 0 -50 5 -94 12 -131 21 -289 -10 -396 -78 l-45 -28 -31 95
c-17 53 -38 112 -47 131 l-15 35 146 1 c150 1 275 17 407 52 39 11 77 17 85
15 8 -2 51 -13 95 -23z m-223 -346 l37 -6 3 -393 c3 -370 4 -394 22 -414 26
-29 86 -29 112 0 18 20 19 44 22 414 l3 394 52 6 c157 19 353 -74 372 -177 3
-18 5 -229 3 -468 -3 -494 0 -474 -89 -560 -96 -94 -241 -144 -419 -144 -181
0 -323 50 -425 150 -86 85 -85 78 -85 581 0 346 3 440 14 466 43 100 231 175
378 151z"/>
</g>
</svg>
